<?xml version="1.0" encoding="UTF-8"?> <svg xmlns="http://www.w3.org/2000/svg" width="315" height="315" viewBox="0 0 315 315" fill="none"><path d="M151.754 1.37769C155.429 -0.144719 159.559 -0.144719 163.234 1.37769L263.826 43.0442C267.502 44.5666 270.422 47.4867 271.944 51.1621L313.611 151.754C315.133 155.429 315.133 159.559 313.611 163.235L271.944 263.826C270.422 267.502 267.502 270.422 263.826 271.944L163.234 313.611C159.559 315.133 155.429 315.133 151.754 313.611L51.1621 271.944C47.4867 270.422 44.5666 267.502 43.0442 263.826L1.37769 163.234C-0.144719 159.559 -0.144719 155.429 1.37769 151.754L43.0442 51.1621C44.5666 47.4867 47.4867 44.5666 51.1621 43.0442L151.754 1.37769Z" fill="#B19DFF"></path></svg> 